<svg width="196" height="196" xmlns="http://www.w3.org/2000/svg" viewBox="0 0 100 100" preserveAspectRatio="xMidYMid" class="uil-default"><path fill="none" class="bk" d="M0 0h100v100H0z"/><rect x="49" y="45" width="2" height="10" rx="1" ry="1" fill="#cec9c9" transform="translate(0 -10)"><animate attributeName="opacity" from="1" to="0" dur="1s" begin="0s" repeatCount="indefinite"/></rect><rect x="49" y="45" width="2" height="10" rx="1" ry="1" fill="#cec9c9" transform="rotate(36 65.388 55)"><animate attributeName="opacity" from="1" to="0" dur="1s" begin="0.1s" repeatCount="indefinite"/></rect><rect x="49" y="45" width="2" height="10" rx="1" ry="1" fill="#cec9c9" transform="rotate(72 56.882 55)"><animate attributeName="opacity" from="1" to="0" dur="1s" begin="0.2s" repeatCount="indefinite"/></rect><rect x="49" y="45" width="2" height="10" rx="1" ry="1" fill="#cec9c9" transform="rotate(108 53.633 55)"><animate attributeName="opacity" from="1" to="0" dur="1s" begin="0.3s" repeatCount="indefinite"/></rect><rect x="49" y="45" width="2" height="10" rx="1" ry="1" fill="#cec9c9" transform="rotate(144 51.625 55)"><animate attributeName="opacity" from="1" to="0" dur="1s" begin="0.4s" repeatCount="indefinite"/></rect><rect x="49" y="45" width="2" height="10" rx="1" ry="1" fill="#cec9c9" transform="rotate(180 50 55)"><animate attributeName="opacity" from="1" to="0" dur="1s" begin="0.5s" repeatCount="indefinite"/></rect><rect x="49" y="45" width="2" height="10" rx="1" ry="1" fill="#cec9c9" transform="rotate(-144 48.375 55)"><animate attributeName="opacity" from="1" to="0" dur="1s" begin="0.6s" repeatCount="indefinite"/></rect><rect x="49" y="45" width="2" height="10" rx="1" ry="1" fill="#cec9c9" transform="rotate(-108 46.367 55)"><animate attributeName="opacity" from="1" to="0" dur="1s" begin="0.7s" repeatCount="indefinite"/></rect><rect x="49" y="45" width="2" height="10" rx="1" ry="1" fill="#cec9c9" transform="rotate(-72 43.118 55)"><animate attributeName="opacity" from="1" to="0" dur="1s" begin="0.8s" repeatCount="indefinite"/></rect><rect x="49" y="45" width="2" height="10" rx="1" ry="1" fill="#cec9c9" transform="rotate(-36 34.612 55)"><animate attributeName="opacity" from="1" to="0" dur="1s" begin="0.9s" repeatCount="indefinite"/></rect></svg>